<?xml version="1.0" standalone="no"?><!DOCTYPE svg PUBLIC "-//W3C//DTD SVG 1.1//EN" "http://www.w3.org/Graphics/SVG/1.1/DTD/svg11.dtd"><svg class="icon" width="200px" height="200.00px" viewBox="0 0 1024 1024" version="1.1" xmlns="http://www.w3.org/2000/svg"><path fill="#524f4f" d="M512 0a512 512 0 0 0-512 512 512 512 0 0 0 350.08 485.76c25.6 4.8 35.008-11.008 35.008-24.64 0-12.16-0.448-44.352-0.64-87.04-142.464 30.912-172.48-68.672-172.48-68.672-23.296-59.136-56.96-74.88-56.96-74.88-46.4-31.744 3.584-31.104 3.584-31.104 51.392 3.584 78.4 52.736 78.4 52.736 45.696 78.272 119.872 55.68 149.12 42.56 4.608-33.088 17.792-55.68 32.448-68.48-113.728-12.8-233.216-56.832-233.216-252.992 0-55.872 19.84-101.568 52.672-137.408-5.312-12.928-22.912-64.96 4.928-135.488 0 0 43.008-13.76 140.8 52.48a491.52 491.52 0 0 1 128.192-17.28c43.52 0.256 87.296 5.888 128.192 17.28 97.728-66.24 140.672-52.48 140.672-52.48 27.968 70.528 10.432 122.56 5.12 135.488 32.832 35.84 52.672 81.536 52.672 137.408 0 196.672-119.68 240-233.792 252.608 18.368 15.744 34.752 47.04 34.752 94.72 0 68.48-0.64 123.712-0.64 140.48 0 13.76 9.216 29.632 35.2 24.64A512 512 0 0 0 512 0" /></svg>