<?xml version="1.0" standalone="no"?><!DOCTYPE svg PUBLIC "-//W3C//DTD SVG 1.1//EN" "http://www.w3.org/Graphics/SVG/1.1/DTD/svg11.dtd"><svg t="1592318159051" class="icon" viewBox="0 0 1024 1024" version="1.1" xmlns="http://www.w3.org/2000/svg" p-id="3567" xmlns:xlink="http://www.w3.org/1999/xlink" width="200" height="200"><defs><style type="text/css"></style></defs><path d="M967.617363 531.385513c0-244.531296-200.372563-442.761056-447.545012-442.761056-247.171426 0-447.543989 198.22976-447.543989 442.761056 0 1.440815 0.016373 2.87856 0.029676 4.315282-0.014326 1.436722-0.029676 2.876514-0.029676 4.317329 0 244.531296 200.372563 442.761056 447.543989 442.761056 247.172449 0 447.545012-198.22976 447.545012-442.761056 0-1.440815-0.016373-2.879584-0.029676-4.317329C967.600991 534.264073 967.617363 532.827351 967.617363 531.385513zM720.028429 576.366983c-1.496074 1.497097-3.062755 2.876514-4.679579 4.160763L475.2147 817.597093c-21.351284 21.351284-55.967686 21.351284-77.31897 0s-21.350261-55.965639 0-77.317946l205.89637-202.828498L397.896754 331.123466c-21.350261-21.350261-21.350261-55.966663 0-77.317946 21.350261-21.350261 55.966663-21.350261 77.31897 0L715.351919 494.372527c1.6158 1.286296 3.181459 2.664689 4.676509 4.15974 10.740622 10.740622 16.07307 24.838711 16.006556 38.918381C736.101499 551.526225 730.769051 565.624315 720.028429 576.366983z" p-id="3568" fill="#ffffff"></path></svg>